<?xml version="1.0" encoding="UTF-8"?>
<svg class="" width="360" fill="none" viewBox="0 0 303 172" xmlns="http://www.w3.org/2000/svg">
<path d="m229.56 160.23c32.647-10.984 57.366-41.988 53.825-86.81-5.381-68.1-71.025-84.993-111.92-64.933-55.474 27.213-62.5 31.674-102.23 31.674-29.594 0-59.726 14.254-63.492 52.791-2.7301 27.933 8.2518 52.315 48.891 64.764 73.962 22.657 143.38 13.128 174.93 2.513z" clip-rule="evenodd" fill="#DAF7F3" fill-rule="evenodd"/>
<path d="m131.59 68.942h0.01c6.261 0 11.336-5.2635 11.336-11.756s-5.075-11.756-11.336-11.756c-5.081 0-9.381 3.4661-10.822 8.2426-0.755-0.2627-1.564-0.4051-2.404-0.4051-4.174 0-7.558 3.509-7.558 7.8375s3.384 7.8375 7.558 7.8375h0.013 13.203z" clip-rule="evenodd" fill="#fff" fill-rule="evenodd"/>
<path d="m105.68 128.72c3.504 0 6.344-2.808 6.344-6.27 0-3.463-2.84-6.27-6.344-6.27-1.156 0-2.24 0.305-3.173 0.839v-0.056c0-6.492-5.3259-11.756-11.896-11.756-5.2905 0-9.7744 3.413-11.32 8.132-0.6873-0.192-1.4125-0.294-2.1621-0.294-4.3801 0-7.9309 3.509-7.9309 7.837 0 4.329 3.5508 7.838 7.9309 7.838h0.0112 28.54z" clip-rule="evenodd" fill="#fff" fill-rule="evenodd"/>
<rect transform="matrix(.99452 .10453 -.10391 .99459 10.555 41.617)" x=".44531" y=".54956" width="50.58" height="100.07" rx="7.5" fill="#42CBA5" stroke="#316474"/>
<rect transform="matrix(.99452 .10453 -.10391 .99459 10.926 37.956)" x=".44531" y=".54956" width="50.403" height="99.722" rx="7.5" fill="#fff" stroke="#316474"/>
<path d="m57.161 51.735-8.5692 82.024c-0.3156 3.021-3.0204 5.213-6.0414 4.895l-32.969-3.465c-3.0209-0.318-5.214-3.024-4.8984-6.045l8.5692-82.024c0.3157-3.0212 3.0205-5.2129 6.0414-4.8953l5.2588 0.5527 27.711 2.9125c3.021 0.3175 5.214 3.024 4.8984 6.0451z" fill="#EEFEFA" stroke="#316474"/>
<path d="m26.201 102.94c0.8624 0.082 1.7314 0.182 2.6014 0.273 0.2379-2.178 0.4683-4.3663 0.6893-6.5462l-2.6099-0.2738c-0.2379 2.1781-0.4768 4.365-0.6808 6.547zm-2.7305-9.6076 2.2688-1.8339 1.8382 2.2648 1.1344-0.9169-1.8382-2.2659 2.2698-1.8337-0.9186-1.1324-2.2698 1.8338-1.8371-2.2646-1.1355 0.9168 1.8383 2.2647-2.2699 1.8349 0.9196 1.1324zm-0.8159 5.2854c-0.1284 1.3005-0.2652 2.6002-0.4105 3.8992 0.8766 0.109 1.7484 0.183 2.6259 0.284 0.1465-1.31 0.2752-2.614 0.4132-3.9246-0.8784-0.0921-1.7533-0.2183-2.6286-0.2586zm16.848-8.8369c-0.5055 4.8011-1.0187 9.5928-1.5158 14.396 0.8794 0.083 1.7475 0.192 2.6278 0.267 0.4961-4.7937 0.9998-9.5777 1.5131-14.37-0.8646-0.1423-1.7475-0.1919-2.6251-0.2926zm-4.2642 2.668c-0.3886 3.772-0.8027 7.5414-1.1827 11.314 0.8699 0.091 1.7408 0.174 2.6013 0.273 0.4464-3.912 0.8256-7.8408 1.2549-11.755-0.8551-0.1499-1.7313-0.1817-2.5892-0.3061-0.0409 0.1554-0.0691 0.3138-0.0843 0.4737zm-4.1317 1.7362c-0.0426 0.1589-0.0605 0.3289-0.0775 0.4905-0.2962 2.8952-0.6171 5.7794-0.9048 8.6754l2.6098 0.274c0.1246-1.02 0.2143-2.035 0.3303-3.055 0.1972-2.0365 0.4549-4.0749 0.6266-6.1148-0.8624-0.081-1.7239-0.1711-2.5844-0.2701z" fill="#316474"/>
<path d="m17.892 48.489c-0.0932 0.8953 0.5656 1.7056 1.4677 1.8034 0.9068 0.0983 1.7258-0.5591 1.8195-1.459 0.0932-0.8953-0.5656-1.7056-1.4677-1.8034-0.9068-0.0983-1.7258 0.559-1.8195 1.459z" fill="#fff" stroke="#316474"/>
<path d="m231.81 136.68-33.863 2.362c-0.294 0.02-0.54-0.02-0.695-0.08-0.041-0.015-0.07-0.03-0.089-0.042l-0.704-10.042c0.018-0.014 0.044-0.033 0.082-0.054 0.145-0.081 0.383-0.154 0.677-0.175l33.863-2.362c0.294-0.02 0.54 0.02 0.695 0.08 0.041 0.016 0.069 0.03 0.088 0.042l0.705 10.042c-0.018 0.014-0.044 0.033-0.082 0.054-0.145 0.081-0.383 0.155-0.677 0.175z" fill="#fff" stroke="#316474"/>
<path d="m283.73 125.68-138.87 9.684c-2.87 0.2-5.371-1.963-5.571-4.823l-6.234-88.905c-0.201-2.8598 1.972-5.3491 4.844-5.5493l138.87-9.6848c2.874-0.2003 5.371 1.9632 5.572 4.823l6.233 88.905c0.201 2.86-1.971 5.349-4.844 5.55z" fill="#fff"/>
<path d="m144.86 135.36c-2.87 0.2-5.371-1.963-5.571-4.823l-6.234-88.905c-0.201-2.8598 1.972-5.3491 4.844-5.5493l138.87-9.6848c2.874-0.2004 5.371 1.9632 5.572 4.823l6.233 88.905c0.201 2.86-1.971 5.349-4.844 5.55" stroke="#316474"/>
<path d="m278.56 121.4-129.88 9.058c-2.424 0.169-4.506-1.602-4.668-3.913l-5.669-80.855c-0.162-2.3104 1.651-4.3536 4.076-4.5227l129.88-9.0581c2.427-0.1692 4.506 1.6024 4.668 3.9129l5.669 80.855c0.162 2.311-1.649 4.354-4.076 4.523z" fill="#EEFEFA" stroke="#316474"/>
<path d="m230.2 129.97 68.493-4.777 0.42 5.996c0.055 0.781-0.098 1.478-0.363 1.972-0.27 0.5-0.611 0.726-0.923 0.748l-165.03 11.509c-0.312 0.022-0.681-0.155-1.017-0.613-0.332-0.452-0.581-1.121-0.636-1.902l-0.42-5.996 68.494-4.776c0.261 0.79 0.652 1.483 1.142 1.998 0.572 0.6 1.308 0.986 2.125 0.929l24.889-1.736c0.817-0.057 1.491-0.54 1.974-1.214 0.413-0.577 0.705-1.318 0.853-2.138z" fill="#42CBA5" stroke="#316474"/>
<path d="m230.37 129.05 69.908-4.876 0.258 3.676c0.058 0.83-0.569 1.552-1.403 1.61l-168.27 11.735c-0.833 0.058-1.555-0.569-1.613-1.399l-0.258-3.676 69.909-4.876c0.589 1.146 1.813 1.902 3.188 1.806l25.378-1.77c1.374-0.096 2.481-1.013 2.905-2.23z" fill="#fff" stroke="#316474"/>
<ellipse transform="matrix(.99758 -.06957 .069943 .99755 210.66 83.553)" rx="15.997" ry="15.997" fill="#42CBA5" stroke="#316474"/>
<path d="m208.18 87.109-3.407-2.7501c0-3e-4 -1e-3 -6e-4 -1e-3 -1e-3 -0.819-0.6677-2.032-0.5571-2.715 0.249-0.687 0.8118-0.575 2.0192 0.249 2.6924l2e-3 0.0014 5.077 4.1105v8e-4c0.889 0.7248 2.222 0.5249 2.853-0.4329l8.041-12.21c0.585-0.8887 0.325-2.0732-0.573-2.643-0.893-0.5664-2.086-0.3161-2.667 0.5669l-6.859 10.416z" fill="#fff" stroke="#316474"/>
</svg>
